<mxfile host="Electron" agent="Mozilla/5.0 (Windows NT 10.0; Win64; x64) AppleWebKit/537.36 (KHTML, like Gecko) draw.io/27.0.9 Chrome/134.0.6998.205 Electron/35.4.0 Safari/537.36" version="27.0.9">
  <diagram name="Página-1" id="FojTh0W5zqZUxjxtluHg">
    <mxGraphModel dx="1111" dy="529" grid="1" gridSize="10" guides="1" tooltips="1" connect="1" arrows="1" fold="1" page="1" pageScale="1" pageWidth="850" pageHeight="1100" math="0" shadow="0">
      <root>
        <mxCell id="0" />
        <mxCell id="1" parent="0" />
        <mxCell id="mOoil3UXg39VozKLvSYW-22" style="edgeStyle=orthogonalEdgeStyle;rounded=0;orthogonalLoop=1;jettySize=auto;html=1;exitX=0.5;exitY=0.5;exitDx=0;exitDy=0;exitPerimeter=0;entryX=0;entryY=0.5;entryDx=0;entryDy=0;" edge="1" parent="1" source="mOoil3UXg39VozKLvSYW-1" target="mOoil3UXg39VozKLvSYW-7">
          <mxGeometry relative="1" as="geometry" />
        </mxCell>
        <mxCell id="mOoil3UXg39VozKLvSYW-23" style="edgeStyle=orthogonalEdgeStyle;rounded=0;orthogonalLoop=1;jettySize=auto;html=1;exitX=0.5;exitY=0.5;exitDx=0;exitDy=0;exitPerimeter=0;entryX=0;entryY=0.5;entryDx=0;entryDy=0;" edge="1" parent="1" source="mOoil3UXg39VozKLvSYW-1" target="mOoil3UXg39VozKLvSYW-20">
          <mxGeometry relative="1" as="geometry" />
        </mxCell>
        <mxCell id="mOoil3UXg39VozKLvSYW-24" style="edgeStyle=orthogonalEdgeStyle;rounded=0;orthogonalLoop=1;jettySize=auto;html=1;exitX=0.5;exitY=0.5;exitDx=0;exitDy=0;exitPerimeter=0;entryX=0;entryY=0.5;entryDx=0;entryDy=0;" edge="1" parent="1" source="mOoil3UXg39VozKLvSYW-1" target="mOoil3UXg39VozKLvSYW-19">
          <mxGeometry relative="1" as="geometry" />
        </mxCell>
        <mxCell id="mOoil3UXg39VozKLvSYW-1" value="Administrador de RH" style="shape=umlActor;verticalLabelPosition=bottom;verticalAlign=top;html=1;outlineConnect=0;" vertex="1" parent="1">
          <mxGeometry x="210" y="230" width="30" height="60" as="geometry" />
        </mxCell>
        <mxCell id="mOoil3UXg39VozKLvSYW-11" value="Sistema de Processamento de Salário" style="swimlane;whiteSpace=wrap;html=1;" vertex="1" parent="1">
          <mxGeometry x="290" y="70" width="280" height="360" as="geometry" />
        </mxCell>
        <mxCell id="mOoil3UXg39VozKLvSYW-7" value="Gerir&lt;div&gt;Colaborador&lt;/div&gt;" style="ellipse;whiteSpace=wrap;html=1;" vertex="1" parent="mOoil3UXg39VozKLvSYW-11">
          <mxGeometry x="110" y="50" width="100" height="60" as="geometry" />
        </mxCell>
        <mxCell id="mOoil3UXg39VozKLvSYW-20" value="Processar&lt;div&gt;Salário&lt;/div&gt;" style="ellipse;whiteSpace=wrap;html=1;" vertex="1" parent="mOoil3UXg39VozKLvSYW-11">
          <mxGeometry x="110" y="270" width="100" height="60" as="geometry" />
        </mxCell>
        <mxCell id="mOoil3UXg39VozKLvSYW-19" value="Gerir&lt;div&gt;Função&lt;/div&gt;" style="ellipse;whiteSpace=wrap;html=1;" vertex="1" parent="mOoil3UXg39VozKLvSYW-11">
          <mxGeometry x="110" y="160" width="100" height="60" as="geometry" />
        </mxCell>
      </root>
    </mxGraphModel>
  </diagram>
</mxfile>
